<?xml version="1.0" encoding="utf-8"?>
<svg data-name="Layer 1" width="931" height="533" viewBox="0 0 659.158 533" xmlns="http://www.w3.org/2000/svg">
  <path id="b28c6922-ddd3-47e4-a3ac-36d7a7012cbe-460" data-name="Path 438" d="M 17.6 490.445 C 25.064 493.068 33.355 491.608 39.473 486.592 C 47.134 480.161 49.537 469.571 51.49 459.762 L 57.271 430.748 L 45.169 439.081 C 36.465 445.074 27.566 451.259 21.54 459.939 C 15.514 468.619 12.885 480.469 17.725 489.862" fill="#e6e6e6"/>
  <path id="f348d1cd-efe1-4e64-9555-bec9588846f0-461" data-name="Path 439" d="M 19.469 527.591 C 17.946 516.493 16.379 505.252 17.45 494.036 C 18.399 484.074 21.438 474.346 27.626 466.366 C 30.91 462.14 34.906 458.518 39.435 455.665 C 40.616 454.92 41.703 456.791 40.527 457.533 C 32.691 462.485 26.63 469.798 23.217 478.417 C 19.449 488.001 18.844 498.45 19.493 508.631 C 19.885 514.788 20.719 520.905 21.556 527.015 C 21.694 527.588 21.363 528.17 20.801 528.345 C 20.225 528.5 19.632 528.163 19.47 527.59 L 19.469 527.591 Z" fill="#f2f2f2"/>
  <path id="a93533ad-4b65-413c-802a-4ad30488ecb9-462" data-name="Path 442" d="M171.46229,688.53548a16.67411,16.67411,0,0,0,14.5285,7.50083c7.35657-.34909,13.487-5.48135,19.00519-10.35543l16.32508-14.4138L210.517,670.75c-7.76983-.37215-15.74016-.72123-23.14071,1.67758s-14.22557,8.16289-15.57861,15.82312" transform="translate(-134.5 -183.5)" fill="#e6e6e6"/>
  <path id="b011e8a2-9a94-4c33-83aa-73d3f3df33bf-463" data-name="Path 443" d="M 15.163 533.97 C 22.497 520.995 31.002 506.574 46.202 501.964 C 50.427 500.687 54.858 500.23 59.256 500.616 C 60.642 500.736 60.296 502.872 58.913 502.753 C 51.541 502.141 44.184 504.088 38.079 508.265 C 32.205 512.263 27.631 517.823 23.76 523.717 C 21.388 527.328 19.264 531.093 17.14 534.852 C 16.462 536.053 14.477 535.186 15.163 533.97 Z" fill="#f2f2f2"/>
  <circle cx="369.19291" cy="160" r="6" fill="#e5e5e5"/>
  <path d="M647.18667,390.27051a421.89957,421.89957,0,0,1-67.00317-35.15137c-50.99634-32.80322-85.76758-70.74414-86.52393-94.41211-.22119-6.91748,2.34839-12.40332,7.63745-16.3042,8.55567-6.311,23.80884-7.82519,44.11157-4.38232l-.50146,2.958c-19.48071-3.30469-33.94507-1.97706-41.82935,3.83837-4.44751,3.28077-6.60742,7.92139-6.41992,13.79444.72632,22.72558,34.94507,59.6914,85.14868,91.98437a418.78342,418.78342,0,0,0,66.51734,34.89844Z" transform="translate(-134.5 -183.5)" fill="#3f3d56"/>
  <path d="M719.38906,408.044c-8.89721,0-19.43335-1.43213-31.41382-4.3042l.69922-2.917c25.15576,6.0293,44.1919,5.52784,53.6023-1.41357,4.44751-3.28076,6.60742-7.92188,6.41992-13.79443-.72656-22.72608-34.94507-59.69141-85.14868-91.98389-25.44458-16.36719-52.46924-29.998-78.15235-39.41846l1.03321-2.8164c25.88672,9.49511,53.11523,23.227,78.74219,39.71142,50.99609,32.80274,85.76757,70.74365,86.52392,94.41162.22119,6.91748-2.34839,12.40332-7.63745,16.3042C738.44033,405.96631,730.10342,408.044,719.38906,408.044Z" transform="translate(-134.5 -183.5)" fill="#3f3d56"/>
  <path d="M526.05239,408.01221c-10.74389.00049-19.1582-2.06055-24.75537-6.189-5.28906-3.90088-7.85864-9.38672-7.63745-16.3042.75635-23.668,35.52783-61.60888,86.52393-94.41162,56.99511-36.66113,120.96972-58.38818,152.1184-51.65869l-.6333,2.93262c-30.44506-6.58057-93.47143,14.97656-149.86206,51.24951-50.20361,32.29248-84.42212,69.25781-85.14868,91.98389-.18774,5.87255,1.97241,10.51367,6.41992,13.79443,22.52539,16.6123,94.51172-4.38672,160.47022-46.81348,45.30932-29.144,77.50439-61.75244,84.021-85.09961l2.88965.80664c-6.706,24.02491-39.38623,57.291-85.28759,86.81641-32.30323,20.77832-67.03711,37.10693-97.80347,45.97754C551.38687,405.70459,537.41665,408.01172,526.05239,408.01221Z" transform="translate(-134.5 -183.5)" fill="#3f3d56"/>
  <circle cx="431.40518" cy="62.5" r="9" fill="#5f3dc4"/>
  <circle cx="531.90518" cy="213" r="9" fill="#5f3dc4"/>
  <circle cx="559.90518" cy="295" r="6" fill="#e5e5e5"/>
  <circle cx="411.90518" cy="6" r="6" fill="#e5e5e5"/>
  <circle cx="610.90518" cy="67" r="9" fill="#5f3dc4"/>
  <path d="M452.5,716.5h-317a1,1,0,0,1,0-2h317a1,1,0,0,1,0,2Z" transform="translate(-134.5 -183.5)" fill="#cbcbcb"/>
  <polygon points="237.96 519.014 250.22 519.013 256.052 471.725 237.958 471.726 237.96 519.014" fill="#ffb7b7"/>
  <path d="M 234.833 515.012 L 258.977 515.011 L 258.978 515.011 C 267.475 515.011 274.364 521.899 274.364 530.397 L 274.364 530.897 L 234.834 530.898 L 234.833 515.012 Z" fill="#2f2e41"/>
  <polygon points="188.96 520.014 201.22 520.013 207.052 472.725 188.958 472.726 188.96 520.014" fill="#ffb7b7"/>
  <path d="M 185.833 516.012 L 209.977 516.011 L 209.978 516.011 C 218.475 516.011 225.364 522.899 225.364 531.397 L 225.364 531.897 L 185.834 531.898 L 185.833 516.012 Z" fill="#2f2e41"/>
  <path d="M 263.69 320.201 L 257.457 502.406 L 237.457 502.406 L 218.502 339.126 L 210.457 504.406 L 185.457 504.406 L 178.55 308.636 L 255.3 307.585 L 263.69 320.201 Z" fill="#2f2e41"/>
  <polygon points="202.205 172.522 237.457 171.406 245.312 316.521 189.589 315.405 202.205 172.522" fill="#cbcbcb"/>
  <path d="M 230.067 324.407 L 266.865 323.356 L 256.351 270.787 L 257.403 240.297 L 265.814 190.883 L 242.683 177.215 L 237.426 170.906 C 237.426 170.906 229.015 179.317 229.015 218.218 C 229.015 257.119 230.067 324.407 230.067 324.407 Z" fill="#2f2e41"/>
  <path d="M 198.526 323.356 C 198.526 323.356 230.067 247.408 216.399 213.363 C 216.399 213.363 211.746 176.163 204.085 170.906 L 192.217 176.163 L 166.984 188.78 L 176.447 215.064 L 173.293 237.143 L 171.19 313.893 L 198.526 323.356 Z" fill="#2f2e41"/>
  <path d="M 176.784 324.922 C 171.229 322.313 169.383 315.316 172.927 310.305 L 160.924 291.24 L 170.731 281.121 L 187.303 308.282 C 193.227 313.091 191.724 322.51 184.597 325.236 C 182.06 326.206 179.236 326.093 176.784 324.922 L 176.784 324.922 Z" fill="#ffb7b7"/>
  <path d="M 272.648 343.136 C 268.072 339.045 268.305 331.813 273.136 328.026 L 267.092 306.323 L 279.385 299.434 L 287.489 330.203 C 291.789 336.506 287.653 345.1 280.044 345.673 C 277.335 345.876 274.661 344.959 272.648 343.136 L 272.648 343.136 Z" fill="#ffb7b7"/>
  <path d="M 178.55 186.677 L 166.984 188.78 L 141.751 249.759 L 164.882 309.688 L 180.652 294.969 L 165.933 259.222 C 165.933 259.222 166.984 255.016 165.933 254.491 C 164.882 253.965 167.478 250.581 166.984 250.318 C 165.933 249.759 169.087 244.503 169.087 244.503 L 181.704 218.218 L 178.55 186.677 Z" fill="#2f2e41"/>
  <polygon points="254.248 190.882 265.814 190.882 278.43 256.067 277.379 266.581 281.584 292.865 287.367 319.675 268.968 320.201 259.505 270.786 251.094 237.143 254.248 190.882" fill="#2f2e41"/>
  <circle cx="220.422" cy="138.26" r="24.561" fill="#ffb7b7"/>
  <path d="M 239.931 118.416 L 244.292 116.83 C 244.292 116.83 235.174 107.712 222.487 108.504 L 226.055 104.936 C 226.055 104.936 217.333 101.765 209.404 110.09 C 205.235 114.467 200.413 119.611 197.406 125.407 L 192.736 125.407 L 194.685 129.305 L 187.863 133.203 L 194.865 132.503 C 194.202 135.869 194.43 139.35 195.528 142.6 L 197.114 146.961 C 197.114 146.961 203.457 134.274 203.457 132.688 L 203.457 136.653 C 203.457 136.653 207.818 133.085 207.818 130.706 L 210.197 133.481 L 211.386 129.12 L 226.055 133.481 L 223.676 129.913 L 232.795 131.103 L 229.227 126.742 C 229.227 126.742 239.535 131.895 239.931 136.257 C 240.328 140.618 245.481 146.168 245.481 146.168 L 247.86 142.203 C 247.86 142.203 251.428 124.363 239.931 118.416 Z" fill="#2f2e41"/>
</svg>