<svg viewBox="0 0 519 236" fill="none" xmlns="http://www.w3.org/2000/svg">
<path d="M113.917 131.54C113.922 130.817 113.786 130.102 113.518 129.438C113.249 128.773 112.855 128.175 112.358 127.679C111.862 127.184 111.274 126.802 110.632 126.558C109.99 126.313 109.307 126.212 108.626 126.26C107.945 126.307 107.281 126.503 106.675 126.834C106.069 127.166 105.534 127.626 105.103 128.187C104.672 128.747 104.355 129.395 104.172 130.091C103.989 130.787 103.943 131.515 104.037 132.231L89.7756 152.002C89.167 153.291 88.9311 154.741 89.0973 156.171C89.2636 157.6 89.8246 158.947 90.7102 160.04L91.8289 161.422L96.962 160.335L102.78 154.901L102.095 148.742L109.282 136.786L109.272 136.778C110.53 136.693 111.711 136.104 112.573 135.131C113.436 134.158 113.917 132.874 113.917 131.54Z" fill="#FFB9B9"/>
<path d="M15.2932 228.202L12.9652 219.048L45.2063 205.187L48.6421 218.696L15.2932 228.202Z" fill="#FFB8B8"/>
<path d="M7.50594 232.925L0 203.411L0.352611 203.311C3.23043 202.49 6.29814 202.914 8.88097 204.488C11.4638 206.062 13.3502 208.658 14.1253 211.705L14.1255 211.706L18.7098 229.732L7.50594 232.925Z" fill="#2F2E41"/>
<path d="M59.7041 226.739L52.4629 221.164L69.3293 188.941L80.0169 197.169L59.7041 226.739Z" fill="#FFB8B8"/>
<path d="M56.4464 235.592L33.0968 217.615L33.3116 217.303C35.0645 214.751 37.703 213.041 40.6468 212.549C43.5906 212.057 46.5985 212.822 49.009 214.678L49.0096 214.678L63.2706 225.658L56.4464 235.592Z" fill="#2F2E41"/>
<path d="M121.259 181.71L103.037 162.97C101.446 161.334 99.3515 160.361 97.1377 160.231C94.924 160.1 92.74 160.819 90.9875 162.257L56.5806 202.723L59.6606 207.795L92.513 184.246L114.757 215.041L135.974 203.81L121.259 181.71Z" fill="#2F2E41"/>
<path d="M113.388 185.695L100.042 184.609L90.3765 182.128C89.8306 181.226 89.0375 180.523 88.1034 180.111C87.1693 179.7 86.1388 179.601 85.1499 179.826C84.161 180.052 83.2608 180.592 82.5699 181.375C81.879 182.157 81.4304 183.144 81.284 184.204C81.1377 185.264 81.3007 186.346 81.7511 187.305C82.2016 188.264 82.918 189.054 83.8045 189.57C84.691 190.086 85.7053 190.303 86.7115 190.192C87.7177 190.081 88.6678 189.647 89.4347 188.949L89.4333 188.956L95.2511 191.492L120.233 200.549L123.313 198.013L113.388 185.695Z" fill="#FFB9B9"/>
<path d="M145.556 224.823L138.028 229.895H129.13L87.7223 213.592L27.1504 225.185L25.4393 211.418L80.8782 185.696L129.473 202.723L145.556 224.823Z" fill="#2F2E41"/>
<path d="M129.472 136.786C136.843 136.786 142.819 130.46 142.819 122.657C142.819 114.854 136.843 108.528 129.472 108.528C122.101 108.528 116.126 114.854 116.126 122.657C116.126 130.46 122.101 136.786 129.472 136.786Z" fill="#FFB9B9"/>
<path d="M164.005 179.069C164.005 187.596 162.736 196.07 160.244 204.179L159.245 207.433L154.454 230.619L149.321 232.068L145.556 226.996L138.028 221.2L132.552 211.78L127.857 203.498L126.392 200.912L121.259 173.74L101.753 162.147L95.251 161.06L96.6198 157.075L102.437 148.742L108.255 148.017L109.966 146.568L111.335 147.293L118.881 150.37L143.346 139.427L146.925 140.047L159.245 150.916C162.394 159.927 164.006 169.46 164.005 179.069Z" fill="#CCCCCC"/>
<path opacity="0.1" d="M160.271 175.914L147.267 184.971L127.857 203.498L126.393 200.912L122.286 179.174H123.313L133.921 158.524L160.271 175.914Z" fill="black"/>
<path d="M133.921 156.35L123.313 177L117.153 184.246L111.678 185.696L126.393 202.723L147.267 182.797L160.271 173.74L133.921 156.35Z" fill="#CCCCCC"/>
<path d="M119.092 112.151L117.646 112.74C117.426 112.583 117.238 112.381 117.092 112.147C116.946 111.913 116.845 111.65 116.795 111.375C116.745 111.099 116.747 110.816 116.8 110.541C116.853 110.266 116.957 110.005 117.106 109.773C117.114 109.76 117.121 109.748 117.13 109.736L114.457 109.604C116.173 107.185 118.354 105.18 120.856 103.72C123.358 102.261 126.125 101.38 128.973 101.137C131.82 100.894 134.684 101.294 137.375 102.311C140.066 103.327 142.522 104.937 144.581 107.033C144.703 106.59 146.029 107.453 146.571 108.328C146.753 107.606 147.996 111.096 148.436 113.562C148.64 112.741 149.423 114.067 148.737 115.339C149.171 115.272 149.368 116.449 149.031 117.105C149.507 116.868 149.426 118.273 148.911 119.213C149.589 119.149 148.853 133.943 138.671 132.865C137.963 129.417 138.162 129.631 137.328 125.197C136.939 124.761 136.514 124.363 136.089 123.966L133.792 121.82C131.12 119.323 128.69 116.242 125.132 115.309C122.686 114.668 121.14 114.523 122.473 111.606C121.269 112.138 120.144 112.929 118.929 113.423C118.945 113.015 119.115 112.559 119.092 112.151Z" fill="#2F2E41"/>
<path d="M136.146 126.823C137.469 126.823 138.541 125.688 138.541 124.287C138.541 122.887 137.469 121.751 136.146 121.751C134.823 121.751 133.75 122.887 133.75 124.287C133.75 125.688 134.823 126.823 136.146 126.823Z" fill="#FFB9B9"/>
<path d="M24.4346 64.3917L23.7036 76.0126L34.6806 76.7865L35.4116 65.1656L24.4346 64.3917Z" fill="#E6E6E6"/>
<path d="M17.3524 70.5624L30.6816 71.5021L29.7939 85.6132L16.4647 84.6735L17.3524 70.5624ZM30.0635 72.0748L17.8933 71.2168L17.0828 84.1008L29.253 84.9588L30.0635 72.0748Z" fill="#CCCCCC"/>
<path d="M86.4674 29.9322L75.7115 32.3789L78.0226 43.7657L88.7784 41.319L86.4674 29.9322Z" fill="#E6E6E6"/>
<path d="M78.9179 24.417L81.7242 38.2438L68.6636 41.2147L65.8573 27.3879L78.9179 24.417ZM81.0344 37.7718L78.4721 25.1473L66.5472 27.8599L69.1095 40.4844L81.0344 37.7718Z" fill="#CCCCCC"/>
<path d="M75.1655 84.6155L67.1364 92.5774L74.657 101.078L82.6862 93.1157L75.1655 84.6155Z" fill="#E6E6E6"/>
<path d="M83.2637 83.4244L73.514 93.0924L64.3817 82.7708L74.1314 73.1028L83.2637 83.4244ZM73.5408 92.2233L82.4427 83.396L74.1046 73.9719L65.2027 82.7992L73.5408 92.2233Z" fill="#CCCCCC"/>
<path d="M490.386 0.245178H164.888C163.712 0.245177 162.547 0.490503 161.46 0.967149C160.373 1.44379 159.385 2.14242 158.553 3.02315C157.721 3.90388 157.062 4.94946 156.611 6.10018C156.161 7.25091 155.929 8.48425 155.929 9.72979V201.73C155.929 202.976 156.161 204.209 156.611 205.36C157.062 206.51 157.721 207.556 158.553 208.437C159.385 209.318 160.373 210.016 161.46 210.493C162.547 210.969 163.712 211.215 164.888 211.215H490.386C492.762 211.215 495.041 210.215 496.721 208.437C498.401 206.658 499.345 204.246 499.345 201.73V9.72979C499.345 7.21431 498.401 4.80187 496.721 3.02316C495.041 1.24445 492.762 0.24518 490.386 0.245178Z" fill="#3F3D56"/>
<path d="M487.334 17.0072H167.941V207.747H487.334V17.0072Z" fill="white"/>
<path d="M327.364 11.8051C329.173 11.8051 330.64 10.2524 330.64 8.33713C330.64 6.42181 329.173 4.86914 327.364 4.86914C325.555 4.86914 324.088 6.42181 324.088 8.33713C324.088 10.2524 325.555 11.8051 327.364 11.8051Z" fill="white"/>
<path d="M395.993 207.747H167.941V17.0074L395.993 207.747Z" fill="#F2F2F2"/>
<path d="M217.916 193.474C234.872 193.474 248.617 178.922 248.617 160.972C248.617 143.021 234.872 128.47 217.916 128.47C200.96 128.47 187.215 143.021 187.215 160.972C187.215 178.922 200.96 193.474 217.916 193.474Z" fill="#3730A3"/>
<path d="M224.751 185.4C217.197 185.4 209.814 183.029 203.534 178.587C197.254 174.144 192.359 167.83 189.468 160.442C186.578 153.055 185.822 144.926 187.295 137.083C188.769 129.241 192.406 122.037 197.747 116.383C203.088 110.729 209.892 106.878 217.3 105.318C224.708 103.758 232.387 104.559 239.365 107.619C246.343 110.679 252.307 115.861 256.504 122.509C260.7 129.158 262.94 136.975 262.94 144.971C262.94 150.28 261.952 155.537 260.033 160.442C258.113 165.348 255.3 169.804 251.754 173.559C248.208 177.313 243.998 180.291 239.365 182.323C234.732 184.354 229.766 185.4 224.751 185.4ZM224.751 105.07C217.296 105.07 210.009 107.41 203.811 111.794C197.613 116.179 192.782 122.41 189.93 129.701C187.077 136.992 186.331 145.015 187.785 152.755C189.239 160.495 192.829 167.605 198.1 173.185C203.371 178.765 210.086 182.565 217.398 184.105C224.709 185.645 232.287 184.854 239.174 181.834C246.061 178.814 251.947 173.7 256.088 167.139C260.23 160.577 262.44 152.862 262.44 144.971C262.44 139.731 261.466 134.542 259.571 129.701C257.677 124.86 254.901 120.462 251.401 116.757C247.901 113.051 243.747 110.112 239.174 108.107C234.601 106.102 229.7 105.07 224.751 105.07Z" fill="#3F3D56"/>
<path d="M413.395 116.102H383.56V122.702H413.395V116.102Z" fill="#3F3D56"/>
<path d="M441.622 80.3469H355.334V83.1754H441.622V80.3469Z" fill="#3F3D56"/>
<path d="M441.622 91.4596H355.334V94.2881H441.622V91.4596Z" fill="#3F3D56"/>
<path d="M441.622 102.572H355.334V105.401H441.622V102.572Z" fill="#3F3D56"/>
<path d="M464.737 28.4221H452.268V41.6218H464.737V28.4221Z" fill="#3730A3"/>
<path d="M470.525 47.7503H455.385V31.722H470.525V47.7503ZM456.044 47.0534H469.867V32.419H456.044L456.044 47.0534Z" fill="#CCCCCC"/>
<path d="M508.313 204.279H477.142V201.901C477.142 201.839 477.131 201.778 477.108 201.721C477.086 201.664 477.053 201.612 477.012 201.568C476.97 201.524 476.921 201.489 476.867 201.466C476.813 201.442 476.755 201.43 476.697 201.43H466.01C465.951 201.43 465.893 201.442 465.839 201.466C465.785 201.489 465.736 201.524 465.695 201.568C465.654 201.612 465.621 201.664 465.598 201.721C465.576 201.778 465.565 201.839 465.565 201.901V204.279H458.885V201.901C458.885 201.839 458.874 201.778 458.851 201.721C458.829 201.664 458.796 201.612 458.755 201.568C458.713 201.524 458.664 201.489 458.61 201.466C458.556 201.442 458.498 201.43 458.44 201.43H447.753C447.694 201.43 447.636 201.442 447.582 201.466C447.528 201.489 447.479 201.524 447.438 201.568C447.397 201.612 447.364 201.664 447.341 201.721C447.319 201.778 447.307 201.839 447.307 201.901V204.279H440.628V201.901C440.628 201.839 440.617 201.778 440.594 201.721C440.572 201.664 440.539 201.612 440.498 201.568C440.456 201.524 440.407 201.489 440.353 201.466C440.299 201.442 440.241 201.43 440.183 201.43H429.496C429.437 201.43 429.379 201.442 429.325 201.466C429.271 201.489 429.222 201.524 429.181 201.568C429.139 201.612 429.107 201.664 429.084 201.721C429.062 201.778 429.05 201.839 429.05 201.901V204.279H422.371V201.901C422.371 201.839 422.359 201.778 422.337 201.721C422.315 201.664 422.282 201.612 422.241 201.568C422.199 201.524 422.15 201.489 422.096 201.466C422.042 201.442 421.984 201.43 421.926 201.43H411.239C411.18 201.43 411.122 201.442 411.068 201.466C411.014 201.489 410.965 201.524 410.924 201.568C410.882 201.612 410.85 201.664 410.827 201.721C410.805 201.778 410.793 201.839 410.793 201.901V204.279H404.114V201.901C404.114 201.839 404.102 201.778 404.08 201.721C404.058 201.664 404.025 201.612 403.983 201.568C403.942 201.524 403.893 201.489 403.839 201.466C403.785 201.442 403.727 201.43 403.669 201.43H392.981C392.923 201.43 392.865 201.442 392.811 201.466C392.757 201.489 392.708 201.524 392.667 201.568C392.625 201.612 392.592 201.664 392.57 201.721C392.548 201.778 392.536 201.839 392.536 201.901V204.279H385.857V201.901C385.857 201.839 385.845 201.778 385.823 201.721C385.8 201.664 385.768 201.612 385.726 201.568C385.685 201.524 385.636 201.489 385.582 201.466C385.528 201.442 385.47 201.43 385.411 201.43H374.724C374.666 201.43 374.608 201.442 374.554 201.466C374.5 201.489 374.451 201.524 374.409 201.568C374.368 201.612 374.335 201.664 374.313 201.721C374.291 201.778 374.279 201.839 374.279 201.901V204.279H367.6V201.901C367.6 201.839 367.588 201.778 367.566 201.721C367.543 201.664 367.511 201.612 367.469 201.568C367.428 201.524 367.379 201.489 367.325 201.466C367.271 201.442 367.213 201.43 367.154 201.43H283.439C283.38 201.43 283.322 201.442 283.268 201.466C283.214 201.489 283.165 201.524 283.124 201.568C283.083 201.612 283.05 201.664 283.027 201.721C283.005 201.778 282.994 201.839 282.994 201.901V204.279H276.314V201.901C276.314 201.839 276.303 201.778 276.28 201.721C276.258 201.664 276.225 201.612 276.184 201.568C276.142 201.524 276.093 201.489 276.039 201.466C275.985 201.442 275.927 201.43 275.869 201.43H265.182C265.123 201.43 265.065 201.442 265.011 201.466C264.957 201.489 264.908 201.524 264.867 201.568C264.825 201.612 264.793 201.664 264.77 201.721C264.748 201.778 264.736 201.839 264.736 201.901V204.279H258.057V201.901C258.057 201.839 258.045 201.778 258.023 201.721C258.001 201.664 257.968 201.612 257.927 201.568C257.885 201.524 257.836 201.489 257.782 201.466C257.728 201.442 257.67 201.43 257.612 201.43H246.925C246.866 201.43 246.808 201.442 246.754 201.466C246.7 201.489 246.651 201.524 246.61 201.568C246.568 201.612 246.536 201.664 246.513 201.721C246.491 201.778 246.479 201.839 246.479 201.901V204.279H239.8V201.901C239.8 201.839 239.788 201.778 239.766 201.721C239.744 201.664 239.711 201.612 239.669 201.568C239.628 201.524 239.579 201.489 239.525 201.466C239.471 201.442 239.413 201.43 239.355 201.43H228.667C228.609 201.43 228.551 201.442 228.497 201.466C228.443 201.489 228.394 201.524 228.353 201.568C228.311 201.612 228.278 201.664 228.256 201.721C228.234 201.778 228.222 201.839 228.222 201.901V204.279H221.543V201.901C221.543 201.839 221.531 201.778 221.509 201.721C221.486 201.664 221.454 201.612 221.412 201.568C221.371 201.524 221.322 201.489 221.268 201.466C221.214 201.442 221.156 201.43 221.097 201.43H210.41C210.352 201.43 210.294 201.442 210.24 201.466C210.186 201.489 210.137 201.524 210.095 201.568C210.054 201.612 210.021 201.664 209.999 201.721C209.977 201.778 209.965 201.839 209.965 201.901V204.279H203.286V201.901C203.286 201.839 203.274 201.778 203.252 201.721C203.229 201.664 203.197 201.612 203.155 201.568C203.114 201.524 203.065 201.489 203.011 201.466C202.957 201.442 202.899 201.43 202.84 201.43H192.153C192.035 201.43 191.922 201.479 191.838 201.568C191.755 201.656 191.708 201.776 191.708 201.901V204.279H185.029V201.901C185.029 201.839 185.017 201.778 184.995 201.721C184.972 201.664 184.939 201.612 184.898 201.568C184.857 201.524 184.808 201.489 184.754 201.466C184.7 201.442 184.642 201.43 184.583 201.43H173.896C173.778 201.43 173.665 201.479 173.581 201.568C173.498 201.656 173.451 201.776 173.451 201.901V204.279H152.967C150.133 204.279 147.415 205.471 145.41 207.593C143.406 209.714 142.28 212.592 142.28 215.593V220.709C142.28 223.709 143.406 226.587 145.41 228.709C147.415 230.831 150.133 232.023 152.967 232.023H508.313C511.147 232.023 513.866 230.831 515.87 228.709C517.874 226.587 519 223.709 519 220.709V215.593C519 214.107 518.724 212.636 518.186 211.263C517.649 209.89 516.862 208.643 515.87 207.593C514.877 206.542 513.699 205.709 512.403 205.14C511.106 204.571 509.716 204.279 508.313 204.279Z" fill="#3F3D56"/>
</svg>
